HIERARCHY
ROOT Hips
{
    OFFSET   0.000000   0.000000   0.000000
    CHANNELS 6 Xposition Yposition Zposition Zrotation Xrotation Yrotation
    JOINT Chest
    {
        OFFSET   0.000000   8.007230   0.000000
        CHANNELS 3 Zrotation Xrotation Yrotation
        JOINT Chest2
        {
            OFFSET   0.000000  22.077100   0.000000
            CHANNELS 3 Zrotation Xrotation Yrotation
            JOINT Neck
            {
                OFFSET   0.000000  23.255100   0.000000
                CHANNELS 3 Zrotation Xrotation Yrotation
                JOINT Head
                {
                    OFFSET   0.000000  14.370100   1.956600
                    CHANNELS 3 Zrotation Xrotation Yrotation
                    End Site
                    {
                        OFFSET   0.000000  19.566000   0.000000
                    }
                }
            }
            JOINT LeftCollar
            {
                OFFSET   3.911900  19.017000  -0.467063
                CHANNELS 3 Zrotation Xrotation Yrotation
                JOINT LeftShoulder
                {
                    OFFSET  10.383700   0.000000   0.000000
                    CHANNELS 3 Zrotation Xrotation Yrotation
                    JOINT LeftElbow
                    {
                        OFFSET  26.662100   0.001193   0.000980
                        CHANNELS 3 Zrotation Xrotation Yrotation
                        JOINT LeftWrist
                        {
                            OFFSET  28.869000  -0.000059  -0.000082
                            CHANNELS 3 Zrotation Xrotation Yrotation
                            JOINT LeftFinger0
                            {
                                OFFSET   2.044650  -2.323450   3.252850
                                CHANNELS 3 Zrotation Xrotation Yrotation
                                JOINT LeftFinger01
                                {
                                    OFFSET   3.088130   0.000000   0.000000
                                    CHANNELS 3 Zrotation Xrotation Yrotation
                                    JOINT LeftFinger02
                                    {
                                        OFFSET   2.639460   0.000000   0.000000
                                        CHANNELS 3 Zrotation Xrotation Yrotation
                                        End Site
                                        {
                                            OFFSET   2.582190   0.000000   0.000000
                                        }
                                    }
                                }
                            }
                            JOINT LeftFinger1
                            {
                                OFFSET   8.364480   0.000000   3.252850
                                CHANNELS 3 Zrotation Xrotation Yrotation
                                JOINT LeftFinger11
                                {
                                    OFFSET   4.646930   0.000000   0.000000
                                    CHANNELS 3 Zrotation Xrotation Yrotation
                                    JOINT LeftFinger12
                                    {
                                        OFFSET   2.323470   0.000000   0.000000
                                        CHANNELS 3 Zrotation Xrotation Yrotation
                                        End Site
                                        {
                                            OFFSET   2.273050   0.000000   0.000000
                                        }
                                    }
                                }
                            }
                            JOINT LeftFinger2
                            {
                                OFFSET   8.364490   0.000016   1.078090
                                CHANNELS 3 Zrotation Xrotation Yrotation
                                JOINT LeftFinger21
                                {
                                    OFFSET   5.111610   0.000000   0.000000
                                    CHANNELS 3 Zrotation Xrotation Yrotation
                                    JOINT LeftFinger22
                                    {
                                        OFFSET   2.788150   0.000016   0.000000
                                        CHANNELS 3 Zrotation Xrotation Yrotation
                                        End Site
                                        {
                                            OFFSET   2.727660   0.000000   0.000000
                                        }
                                    }
                                }
                            }
                            JOINT LeftFinger3
                            {
                                OFFSET   7.899780   0.000015  -1.078090
                                CHANNELS 3 Zrotation Xrotation Yrotation
                                JOINT LeftFinger31
                                {
                                    OFFSET   4.646930   0.000000   0.000000
                                    CHANNELS 3 Zrotation Xrotation Yrotation
                                    JOINT LeftFinger32
                                    {
                                        OFFSET   2.323470   0.000000   0.000000
                                        CHANNELS 3 Zrotation Xrotation Yrotation
                                        End Site
                                        {
                                            OFFSET   2.273050   0.000000   0.000000
                                        }
                                    }
                                }
                            }
                            JOINT LeftFinger4
                            {
                                OFFSET   7.435090   0.000000  -3.252850
                                CHANNELS 3 Zrotation Xrotation Yrotation
                                JOINT LeftFinger41
                                {
                                    OFFSET   3.717550   0.000000   0.000000
                                    CHANNELS 3 Zrotation Xrotation Yrotation
                                    JOINT LeftFinger42
                                    {
                                        OFFSET   1.858770   0.000000   0.000000
                                        CHANNELS 3 Zrotation Xrotation Yrotation
                                        End Site
                                        {
                                            OFFSET   1.818440   0.000000   0.000000
                                        }
                                    }
                                }
                            }
                        }
                    }
                }
            }
            JOINT RightCollar
            {
                OFFSET  -3.911910  19.017000  -0.467062
                CHANNELS 3 Zrotation Xrotation Yrotation
                JOINT RightShoulder
                {
                    OFFSET -10.383700   0.000014   0.000000
                    CHANNELS 3 Zrotation Xrotation Yrotation
                    JOINT RightElbow
                    {
                        OFFSET -26.662100   0.001225   0.001091
                        CHANNELS 3 Zrotation Xrotation Yrotation
                        JOINT RightWrist
                        {
                            OFFSET -28.869000  -0.000020  -0.000085
                            CHANNELS 3 Zrotation Xrotation Yrotation
                            JOINT RightFinger0
                            {
                                OFFSET  -2.044650  -2.323490   3.252850
                                CHANNELS 3 Zrotation Xrotation Yrotation
                                JOINT RightFinger01
                                {
                                    OFFSET  -3.088130   0.000000   0.000000
                                    CHANNELS 3 Zrotation Xrotation Yrotation
                                    JOINT RightFinger02
                                    {
                                        OFFSET  -2.639460   0.000000   0.000000
                                        CHANNELS 3 Zrotation Xrotation Yrotation
                                        End Site
                                        {
                                            OFFSET  -2.582190   0.000000   0.000000
                                        }
                                    }
                                }
                            }
                            JOINT RightFinger1
                            {
                                OFFSET  -8.364480   0.000000   3.252850
                                CHANNELS 3 Zrotation Xrotation Yrotation
                                JOINT RightFinger11
                                {
                                    OFFSET  -4.646930   0.000000   0.000000
                                    CHANNELS 3 Zrotation Xrotation Yrotation
                                    JOINT RightFinger12
                                    {
                                        OFFSET  -2.323470   0.000000   0.000000
                                        CHANNELS 3 Zrotation Xrotation Yrotation
                                        End Site
                                        {
                                            OFFSET  -2.273050   0.000000   0.000000
                                        }
                                    }
                                }
                            }
                            JOINT RightFinger2
                            {
                                OFFSET  -8.364480   0.000000   1.078090
                                CHANNELS 3 Zrotation Xrotation Yrotation
                                JOINT RightFinger21
                                {
                                    OFFSET  -5.111620   0.000000   0.000000
                                    CHANNELS 3 Zrotation Xrotation Yrotation
                                    JOINT RightFinger22
                                    {
                                        OFFSET  -2.788160   0.000000   0.000000
                                        CHANNELS 3 Zrotation Xrotation Yrotation
                                        End Site
                                        {
                                            OFFSET  -2.727660   0.000000   0.000000
                                        }
                                    }
                                }
                            }
                            JOINT RightFinger3
                            {
                                OFFSET  -7.899780   0.000000  -1.078090
                                CHANNELS 3 Zrotation Xrotation Yrotation
                                JOINT RightFinger31
                                {
                                    OFFSET  -4.646930   0.000000   0.000000
                                    CHANNELS 3 Zrotation Xrotation Yrotation
                                    JOINT RightFinger32
                                    {
                                        OFFSET  -2.323470   0.000000   0.000000
                                        CHANNELS 3 Zrotation Xrotation Yrotation
                                        End Site
                                        {
                                            OFFSET  -2.273050   0.000000   0.000000
                                        }
                                    }
                                }
                            }
                            JOINT RightFinger4
                            {
                                OFFSET  -7.435090   0.000000  -3.252850
                                CHANNELS 3 Zrotation Xrotation Yrotation
                                JOINT RightFinger41
                                {
                                    OFFSET  -3.717550   0.000000   0.000000
                                    CHANNELS 3 Zrotation Xrotation Yrotation
                                    JOINT RightFinger42
                                    {
                                        OFFSET  -1.858760   0.000000   0.000000
                                        CHANNELS 3 Zrotation Xrotation Yrotation
                                        End Site
                                        {
                                            OFFSET  -1.818440   0.000000   0.000000
                                        }
                                    }
                                }
                            }
                        }
                    }
                }
            }
        }
    }
    JOINT LeftHip
    {
        OFFSET   9.783030   0.000000   0.000000
        CHANNELS 3 Zrotation Xrotation Yrotation
        JOINT LeftKnee
        {
            OFFSET   0.000063 -41.789100   0.000608
            CHANNELS 3 Zrotation Xrotation Yrotation
            JOINT LeftAnkle
            {
                OFFSET   0.000048 -41.133200  -0.000184
                CHANNELS 3 Zrotation Xrotation Yrotation
                JOINT LeftToe
                {
                    OFFSET   0.000000  -6.358960  14.674500
                    CHANNELS 3 Zrotation Xrotation Yrotation
                    End Site
                    {
                        OFFSET   0.000000   0.000000   3.913200
                    }
                }
            }
        }
    }
    JOINT RightHip
    {
        OFFSET  -9.783030   0.000000   0.000000
        CHANNELS 3 Zrotation Xrotation Yrotation
        JOINT RightKnee
        {
            OFFSET   0.000071 -41.789100   0.001239
            CHANNELS 3 Zrotation Xrotation Yrotation
            JOINT RightAnkle
            {
                OFFSET   0.000037 -41.133200  -0.000166
                CHANNELS 3 Zrotation Xrotation Yrotation
                JOINT RightToe
                {
                    OFFSET   0.000000  -6.358960  14.674500
                    CHANNELS 3 Zrotation Xrotation Yrotation
                    End Site
                    {
                        OFFSET   0.000000   0.000000   3.913200
                    }
                }
            }
        }
    }
}
MOTION
Frames: 6
Frame Time:   0.016667
 -1.852880  89.502200   1.159720  -5.842840 -18.539900  -4.913030   2.180840  10.481800  -0.207060   4.517470  20.947400  -0.849650   3.084370   4.189860  -0.225555   5.143030   8.422580  -5.111330  -2.664180  -0.136243  -0.161718 -69.225700  25.735600  -9.498930  -3.291610  -8.823410 -17.833600  16.002600 -16.456900   6.138320  42.474500  31.014600 -64.840300 -23.489300   0.000000   0.001351  -6.744660   0.000620  -0.003093 -23.691700   4.060520  -9.167250 -19.650400  -0.001523  -0.000665 -13.755300  -0.000275  -0.000462 -26.699400   0.148787  -0.295925 -26.699600   0.000507  -0.001836 -17.782000   0.000432  -0.000790 -26.455000   0.147470  -0.296499 -26.455200  -0.003721  -0.001637 -17.619200  -0.002377  -0.000722 -26.758800   0.149009  -0.295694 -40.138600  -0.001142  -0.000104 -26.732300   0.000000   0.001144   6.374190  -0.004706   8.894680  50.527000   4.433500  42.753100 -41.578900 -21.888200  70.213600 -35.604200  28.411000  17.242500 -55.479600  54.295400 103.490000  37.370400   0.043039  -0.037987  13.685200   0.016866  -0.023237  56.576800   5.827060   3.802170  46.450500   0.004945   0.011981  34.837900  -0.000656   0.004999  64.987200  -1.810730  -0.838776  65.001500  -0.000629   0.004771  48.751100   0.006649  -0.003082  71.385800  -5.184320  -1.731980  71.465600   0.015168   0.003958  53.599200   0.009093  -0.000979  89.173400 -10.000400  -0.142758 110.000000  -0.001298  -0.002050  80.000000   0.001029  -0.001089   4.665200  22.452400   3.656450   1.340330   0.041225   8.446950  -2.484700  -4.210450   2.101430  -0.000000   0.000000  -0.000000   5.555000  19.845300  -9.035170  -0.411195   2.716220  -7.726800  -0.642580  -4.542530   2.195830   0.000000   0.000000   0.000000
 -1.832820  89.502900   1.151670  -5.871950 -18.502800  -5.013650   2.193710  10.464300  -0.278296   4.562860  20.909400  -0.998192   3.034770   4.167970  -0.220862   5.058790   8.380890  -4.950400  -2.672570  -0.098408  -0.150784 -69.260100  25.667900  -9.412150  -3.346000  -8.786940 -17.792200  15.919200 -16.385600   6.108720  42.496600  31.052100 -64.844200 -23.517800   0.000000   0.001439  -6.758910   0.000685  -0.003104 -23.655700   4.038820  -9.134390 -19.618600  -0.001558  -0.000581 -13.733000  -0.000242  -0.000404 -26.671800   0.135574  -0.269921 -26.672100   0.000481  -0.001760 -17.763600   0.000416  -0.000766 -26.408600   0.134288  -0.270487 -26.408800  -0.003791  -0.001603 -17.588300  -0.002437  -0.000633 -26.710200   0.135683  -0.269743 -40.065700  -0.001204  -0.000053 -26.683700   0.000000   0.001289   6.347400  -0.063038   8.821180  50.196000   4.602490  42.348100 -41.735000 -21.935000  70.288500 -33.784700  28.926800  16.827100 -56.432100  54.248600 104.815000  35.570700   0.041206  -0.030070  12.785400   0.016428  -0.018652  57.378200   7.189040   4.542390  47.140600   0.003368   0.007546  35.355500  -0.000694   0.003499  65.912600  -1.657310  -0.737407  65.923700  -0.000605   0.004132  49.442700   0.004774  -0.000998  72.503300  -5.083020  -1.580020  72.574100   0.012221   0.005393  54.430500   0.008668  -0.000857  89.092700 -10.000700  -0.157104 110.000000  -0.001322  -0.002037  80.000000   0.000985  -0.001035   4.658720  22.443300   3.669860   1.328830   0.017963   8.518220  -2.479610  -4.209630   2.114170   0.000000   0.000000   0.000000   5.544470  19.813500  -9.011440  -0.421468   2.696830  -7.705300  -0.627618  -4.516820   2.257850  -0.000000   0.000000   0.000000
 -1.812570  89.503100   1.145910  -5.901790 -18.462800  -5.117900   2.208230  10.443000  -0.359061   4.602000  20.863400  -1.164940   2.991180   4.148910  -0.216758   4.986080   8.344430  -4.763980  -2.680720  -0.031110  -0.122481 -69.269700  25.633700  -9.355270  -3.398400  -8.769670 -17.702800  15.840700 -16.308400   6.087580  42.492800  31.077000 -64.826900 -23.544700   0.000000   0.001529  -6.772370   0.000761  -0.003115 -23.610800   4.014890  -9.100290 -19.579400  -0.001593  -0.000494 -13.705600  -0.000205  -0.000342 -26.637900   0.122691  -0.244617 -26.638200   0.000458  -0.001680 -17.741000   0.000400  -0.000740 -26.353600   0.121435  -0.245177 -26.353800  -0.003859  -0.001569 -17.551600  -0.002496  -0.000539 -26.649600   0.122681  -0.244507 -39.974700  -0.001265   0.000000 -26.623200   0.000000   0.001434   6.305790  -0.092840   8.766340  49.498600   4.900070  41.914600 -41.689200 -22.094100  70.472200 -30.718800  29.110400  16.751100 -57.224300  54.069900 105.934000  33.718700   0.031675  -0.022152  11.859400   0.013366  -0.014066  57.655300   8.705880   5.436340  47.492800   0.001846  -0.001907  35.619600  -0.000763  -0.001225  66.402800  -1.574250  -0.687285  66.412300  -0.000564  -0.000343  49.809200  -0.000500   0.000194  73.328500  -4.999600  -1.488260  73.393600   0.005257   0.005598  55.045200   0.005698  -0.000734  88.984600 -10.000800  -0.176302 110.000000  -0.001346  -0.002028  80.000000   0.000941  -0.000983   4.647870  22.429100   3.679620   1.316470   0.001663   8.595120  -2.473190  -4.208810   2.131140  -0.000000   0.000000  -0.000000   5.530210  19.782700  -8.982470  -0.432497   2.671600  -7.683650  -0.611217  -4.490540   2.320000  -0.000000   0.000000   0.000000
 -1.793970  89.503400   1.143000  -5.925070 -18.417600  -5.232290   2.213430  10.418700  -0.437002   4.623990  20.811700  -1.324330   2.965400   4.136020  -0.214180   4.944110   8.319590  -4.596610  -2.689080   0.041684  -0.076935 -69.260600  25.646000  -9.346870  -3.442250  -8.789440 -17.567200  15.771600 -16.212100   6.090630  42.477900  31.057200 -64.767100 -23.557200  -0.000000   0.001571  -6.778630   0.000797  -0.003110 -23.563100   3.992110  -9.073740 -19.538300  -0.001625  -0.000405 -13.676800  -0.000167  -0.000277 -26.603200   0.116077  -0.231837 -26.603500   0.000427  -0.001639 -17.717900   0.000382  -0.000727 -26.295900   0.114771  -0.232414 -26.296100  -0.003929  -0.001540 -17.513200  -0.002552  -0.000440 -26.579600   0.115895  -0.231826 -39.869900  -0.001341   0.000061 -26.553400   0.000000   0.001577   6.255030  -0.090631   8.728240  48.593900   5.295250  41.464100 -41.328500 -22.573900  70.706000 -27.094300  28.913400  17.983400 -58.167700  53.791200 107.198000  31.989700   0.004409  -0.039961  10.994900  -0.001490  -0.020056  57.311300  10.260900   6.372650  47.439500   0.000418  -0.017542  35.579700  -0.000825  -0.012624  66.368900  -1.577600  -0.692917  66.378700  -0.000497  -0.016134  49.784000  -0.012218  -0.003999  73.592000  -4.960550  -1.477280  73.656100  -0.007859  -0.008576  55.242200  -0.009040  -0.000619  88.952600 -10.000900  -0.181963 110.000000  -0.001353  -0.002029  80.000000   0.000896  -0.000934   4.626110  22.402700   3.691370   1.303440   0.001681   8.672420  -2.464030  -4.213030   2.159090  -0.000000   0.000000   0.000000   5.505500  19.750900  -8.933010  -0.444484   2.640580  -7.658650  -0.594496  -4.464650   2.370010   0.000000   0.000000   0.000000
 -1.777230  89.503800   1.141670  -5.947940 -18.376600  -5.357280   2.212170  10.396600  -0.511580   4.637980  20.764300  -1.476190   2.949550   4.118200  -0.211966   4.915830   8.284390  -4.436120  -2.693810   0.119447  -0.022756 -69.251100  25.675500  -9.347870  -3.479620  -8.843590 -17.409600  15.713000 -16.115000   6.100470  42.460400  31.007800 -64.687600 -23.560800   0.000000   0.001690  -6.780420   0.000906  -0.003105 -23.518100   3.979450  -9.060530 -19.500300  -0.001655  -0.000313 -13.650200  -0.000123  -0.000211 -26.573800   0.113833  -0.227597 -26.574100   0.000409  -0.001512 -17.698400   0.000372  -0.000688 -26.242800   0.112480  -0.228189 -26.243100  -0.003999  -0.001510 -17.477900  -0.002607  -0.000336 -26.513600   0.113543  -0.227651 -39.771000  -0.001386   0.000125 -26.487500   0.000000   0.001719   6.206050  -0.075105   8.712610  47.712600   5.569250  41.005000 -40.865400 -23.102700  71.014300 -23.500900  28.423100  20.109800 -58.699400  53.594500 107.900000  31.050700  -0.018537  -0.057769  10.525300  -0.015305  -0.026046  56.852100  11.143000   7.167380  47.095700  -0.000865  -0.028159  35.321900  -0.000892  -0.020798  66.131900  -1.601050  -0.732346  66.143700  -0.000405  -0.028089  49.607800  -0.020538  -0.008192  73.629800  -4.950770  -1.475700  73.693600  -0.016959  -0.022751  55.270300  -0.021231  -0.000511  88.948000 -10.001000  -0.182772 110.000000  -0.001359  -0.002031  80.000000   0.000854  -0.000886   4.603600  22.374600   3.702180   1.291310   0.001803   8.749340  -2.452940  -4.225450   2.198270   0.000000   0.000000  -0.000000   5.477820  19.724300  -8.878510  -0.458046   2.609170  -7.632030  -0.575411  -4.438910   2.423130  -0.000000   0.000000   0.000000
 -1.763820  89.504100   1.141200  -5.982630 -18.348100  -5.496570   2.209530  10.381400  -0.578516   4.647150  20.730800  -1.612430   2.940720   4.083740  -0.209115   4.899320   8.215610  -4.285550  -2.685080   0.197234   0.034001 -69.245500  25.716100  -9.377620  -3.508550  -8.945350 -17.250200  15.671100 -16.015100   6.118610  42.444200  30.946700 -64.628900 -23.532000   0.005516   0.003437  -6.766000   0.002967  -0.003109 -23.479700   3.986370  -9.087020 -19.470500  -0.001693  -0.000264 -13.629300  -0.000095  -0.000177 -26.559100   0.128424  -0.256876 -26.559500   0.006625  -0.000605 -17.688700   0.004529   0.000123 -26.201300   0.126817  -0.257607 -26.201900  -0.004079  -0.001492 -17.451700  -0.002675  -0.000283 -26.461500   0.127998  -0.257021 -39.693100   0.002592   0.000156 -26.435600   0.002269   0.001789   6.165420  -0.013780   8.712280  47.074100   5.548050  40.537100 -40.431500 -23.313000  71.549900 -20.107200  27.625800  22.191500 -56.713700  53.032400 105.303000  32.245000  -0.022478  -0.057495  11.122800  -0.017152  -0.025860  55.834300  11.099200   7.546600  46.228900  -0.002022  -0.024990  34.671800  -0.000963  -0.018529  65.196100  -1.751740  -0.844789  65.210700  -0.000281  -0.025366  48.908100  -0.018736  -0.007382  72.844800  -5.029160  -1.576130  72.913800  -0.016621  -0.021447  54.685400  -0.020384  -0.000410  89.162500 -10.001000  -0.145323 110.000000  -0.001374  -0.002018  80.000000   0.000817  -0.000836   4.589180  22.350600   3.712440   1.276060   0.024601   8.821280  -2.440600  -4.247560   2.253440   0.000000   0.000000   0.000000   5.453920  19.708400  -8.827530  -0.473989   2.583490  -7.603750  -0.551794  -4.413850   2.489190  -0.000000   0.000000   0.000000
